<svg xmlns="http://www.w3.org/2000/svg" viewBox="0 0 1071.33 806.42"><defs><style>.cls-1{fill:#6b3263;}.cls-2{fill:#57294e;}.cls-3,.cls-7{fill:#4a2343;}.cls-4,.cls-8{fill:#33182e;}.cls-5,.cls-6{fill:#fff;}.cls-6{font-size:31.56px;font-family:Poppins-Regular, Poppins;}.cls-7,.cls-8{stroke:#fff;stroke-miterlimit:10;stroke-width:1.18px;}</style></defs><g id="Capa_2" data-name="Capa 2"><g id="Capa_2-2" data-name="Capa 2"><rect id="Rectángulo_4-2" data-name="Rectángulo 4-2" class="cls-1" x="495.78" y="160.29" width="476.8" height="476.8" transform="translate(-66.88 635.92) rotate(-45)"/><rect id="Rectángulo_4-2-2" data-name="Rectángulo 4-2" class="cls-1" x="98.75" y="160.29" width="476.8" height="476.8" transform="translate(-183.17 355.18) rotate(-45)"/><rect id="Rectángulo_4-2-3" data-name="Rectángulo 4-2" class="cls-2" x="433.73" y="151.9" width="493.59" height="493.59" transform="translate(-82.6 597.98) rotate(-45)"/><rect id="Rectángulo_4-2-4" data-name="Rectángulo 4-2" class="cls-2" x="150.24" y="151.9" width="493.59" height="493.59" transform="translate(-165.63 397.52) rotate(-45)"/><rect id="Rectángulo_4-2-5" data-name="Rectángulo 4-2" class="cls-3" x="358.79" y="140.48" width="518.71" height="518.71" transform="translate(-101.68 554.2) rotate(-45)"/><rect id="Rectángulo_4-2-6" data-name="Rectángulo 4-2" class="cls-3" x="200.88" y="140.48" width="518.71" height="518.71" transform="translate(-147.93 442.55) rotate(-45)"/><rect id="Rectángulo_4-2-7" data-name="Rectángulo 4-2" class="cls-4" x="258.99" y="118.1" width="570.22" height="570.22" transform="translate(-125.75 502.83) rotate(-45)"/><rect class="cls-5" x="325.6" y="405.71" width="1.82" height="83.98"/><polygon class="cls-5" points="332.69 400.45 320.34 400.45 320.34 494.95 332.69 494.95 332.69 400.45 332.69 400.45"/><path class="cls-5" d="M420.92,489.69V405.57h1.81v84.12Zm-2.43,0L363,405.57h.18l55.58,84.12Zm-59.54,0V405.57h1.82v84.12Z"/><polygon class="cls-5" points="427.99 400.31 415.66 400.31 415.66 475.42 366.03 400.31 353.69 400.31 353.69 494.95 366.03 494.95 366.03 419.7 415.66 494.95 427.99 494.95 427.99 400.31 427.99 400.31"/><path class="cls-5" d="M516.23,489.69V405.57h1.82v84.12Zm-2.43,0-55.47-84.12h.19l55.57,84.12Zm-59.54,0V405.57h1.83v84.12Z"/><polygon class="cls-5" points="523.3 400.31 510.97 400.31 510.97 475.42 461.35 400.31 449 400.31 449 494.95 461.35 494.95 461.35 419.7 510.97 494.95 523.3 494.95 523.3 400.31 523.3 400.31"/><path class="cls-5" d="M587.16,490.64a42.76,42.76,0,0,1-21.4-5.48,39.69,39.69,0,0,1-15.17-15.25,47,47,0,0,1,0-44.55,39.65,39.65,0,0,1,15.17-15.26,44.8,44.8,0,0,1,42.94,0,39.88,39.88,0,0,1,15.1,15.18,47.7,47.7,0,0,1,0,44.7,39.77,39.77,0,0,1-15.11,15.18A43,43,0,0,1,587.16,490.64Zm0-85.83a40.09,40.09,0,0,0-20.56,5.34,38,38,0,0,0-14.37,15.14,50.72,50.72,0,0,0,0,44.6,37.75,37.75,0,0,0,14.48,15.24,42,42,0,0,0,40.94,0,37.77,37.77,0,0,0,14.47-15.23,50.81,50.81,0,0,0,0-44.6,38,38,0,0,0-14.38-15.14A40.09,40.09,0,0,0,587.16,404.81Z"/><path class="cls-5" d="M587.16,399.36a47.77,47.77,0,0,0-24,6.17A45.22,45.22,0,0,0,546,422.75a52.21,52.21,0,0,0,0,49.76,45.15,45.15,0,0,0,17.14,17.22,50,50,0,0,0,48.14,0,45,45,0,0,0,17.08-17.15,53,53,0,0,0,0-49.9,45,45,0,0,0-17.08-17.15,48,48,0,0,0-24.14-6.17Zm0,85.83a34.8,34.8,0,0,1-17.82-4.61,32.49,32.49,0,0,1-12.48-13.16,45.56,45.56,0,0,1,0-39.65,32.72,32.72,0,0,1,12.41-13.09,37,37,0,0,1,35.79,0,32.79,32.79,0,0,1,12.41,13.09,45.56,45.56,0,0,1,0,39.65A32.49,32.49,0,0,1,605,480.58a34.84,34.84,0,0,1-17.83,4.61Z"/><path class="cls-5" d="M683.06,489.69l30.6-84h1.73l-31.69,84Zm-6.32,0-31.69-84h1.87l30.6,84Z"/><polygon class="cls-5" points="723 400.45 709.98 400.45 680.29 481.93 650.6 400.45 637.45 400.45 673.1 494.95 687.34 494.95 723 400.45 723 400.45"/><path class="cls-5" d="M784.69,489.69l-31.25-83.44H755l30.22,83.44Zm-36.52-83.44h1.58L724.6,471.07Z"/><path class="cls-5" d="M758.73,401H744.49l-34.17,94h82.44l-34-94ZM724.92,484.8l26.62-68.63,25.7,68.63Z"/><text class="cls-6" transform="translate(410.43 544.44)">Soluciones legales</text><polygon class="cls-7" points="454.94 261.99 429.89 236.94 362.02 304.81 429.89 372.69 483.57 319.02 440.74 276.19 454.94 261.99"/><polygon class="cls-7" points="556.43 256.13 508.62 208.31 454.94 261.99 497.77 304.81 483.57 319.02 508.62 344.06 556.66 296.01 536.61 275.96 556.43 256.13"/><polygon class="cls-7" points="751.08 304.58 683.2 236.71 658.16 261.76 672.36 275.96 629.53 318.79 683.2 372.46 751.08 304.58"/><polygon class="cls-7" points="658.16 261.76 604.48 208.08 556.43 256.13 576.49 276.19 556.66 296.01 604.48 343.83 629.53 318.79 615.33 304.58 658.16 261.76"/><rect class="cls-8" x="459.21" y="260.22" width="20.09" height="60.57" transform="translate(-67.97 416.9) rotate(-45)"/><rect class="cls-8" x="542.53" y="261.89" width="28.04" height="28.36" transform="translate(-32.2 474.4) rotate(-45)"/><rect class="cls-8" x="613.56" y="280.23" width="60.57" height="20.09" transform="translate(-16.67 540.29) rotate(-45)"/></g></g></svg>