<svg xmlns="http://www.w3.org/2000/svg" viewBox="0 0 98.68 42.57"><defs><style>.cls-1{fill:#4a2343;}.cls-1,.cls-2{stroke:#fff;stroke-miterlimit:10;}.cls-2{fill:#33182e;stroke-width:0.5px;}</style></defs><g id="Capa_2" data-name="Capa 2"><g id="Capa_2-2" data-name="Capa 2"><polygon class="cls-1" points="23.94 14.18 17.68 7.92 0.71 24.89 17.68 41.86 31.1 28.44 20.39 17.73 23.94 14.18"/><polygon class="cls-1" points="49.31 12.72 37.36 0.77 23.94 14.18 34.65 24.89 31.1 28.44 37.36 34.7 49.37 22.69 44.36 17.68 49.31 12.72"/><polygon class="cls-1" points="97.98 24.83 81.01 7.86 74.75 14.13 78.3 17.68 67.59 28.39 81.01 41.8 97.98 24.83"/><polygon class="cls-1" points="74.75 14.13 61.33 0.71 49.31 12.72 54.33 17.73 49.37 22.69 61.33 34.65 67.59 28.39 64.04 24.83 74.75 14.13"/><rect class="cls-2" x="25.01" y="13.74" width="5.02" height="15.14" transform="translate(-7.01 25.7) rotate(-45)"/><rect class="cls-2" x="45.84" y="14.16" width="7.01" height="7.09" transform="translate(1.93 40.08) rotate(-45)"/><rect class="cls-2" x="63.6" y="18.74" width="15.14" height="5.02" transform="translate(5.81 56.55) rotate(-45)"/></g></g></svg>